<svg xmlns="http://www.w3.org/2000/svg" viewBox="0 0 32 32">
  <defs>
    <linearGradient id="g" x1="0" y1="0" x2="1" y2="1">
      <stop offset="0%" stop-color="#a855f7"/>
      <stop offset="50%" stop-color="#3b82f6"/>
      <stop offset="100%" stop-color="#06b6d4"/>
    </linearGradient>
  </defs>
  <g fill="none" stroke="url(#g)" stroke-width="0.45" stroke-linecap="round" opacity="0.9" transform="translate(16,16) scale(2.1)">
    <line x1="-2.5" y1="-1.5" x2="0.5" y2="-0.7"/>
    <line x1="0.5" y1="-0.7" x2="0.5" y2="2.6"/>
    <line x1="0.5" y1="2.6" x2="-2.5" y2="1.8"/>
    <line x1="-2.5" y1="1.8" x2="-2.5" y2="-1.5"/>
    <line x1="-0.5" y1="-2.6" x2="2.5" y2="-1.8"/>
    <line x1="2.5" y1="-1.8" x2="2.5" y2="1.5"/>
    <line x1="2.5" y1="1.5" x2="-0.5" y2="0.7"/>
    <line x1="-0.5" y1="0.7" x2="-0.5" y2="-2.6"/>
    <line x1="-2.5" y1="-1.5" x2="-0.5" y2="-2.6"/>
    <line x1="0.5" y1="-0.7" x2="2.5" y2="-1.8"/>
    <line x1="0.5" y1="2.6" x2="2.5" y2="1.5"/>
    <line x1="-2.5" y1="1.8" x2="-0.5" y2="0.7"/>
    <line x1="0.8" y1="-0.6" x2="3.8" y2="0.2"/>
    <line x1="3.8" y1="0.2" x2="3.8" y2="3.5"/>
    <line x1="3.8" y1="3.5" x2="0.8" y2="2.7"/>
    <line x1="0.8" y1="2.7" x2="0.8" y2="-0.6"/>
    <line x1="2.8" y1="-1.8" x2="5.8" y2="-1.0"/>
    <line x1="5.8" y1="-1.0" x2="5.8" y2="2.4"/>
    <line x1="5.8" y1="2.4" x2="2.8" y2="1.6"/>
    <line x1="2.8" y1="1.6" x2="2.8" y2="-1.8"/>
    <line x1="0.8" y1="-0.6" x2="2.8" y2="-1.8"/>
    <line x1="3.8" y1="0.2" x2="5.8" y2="-1.0"/>
    <line x1="3.8" y1="3.5" x2="5.8" y2="2.4"/>
    <line x1="0.8" y1="2.7" x2="2.8" y2="1.6"/>
    <line x1="-5.8" y1="-2.4" x2="-2.8" y2="-1.6"/>
    <line x1="-2.8" y1="-1.6" x2="-2.8" y2="1.8"/>
    <line x1="-2.8" y1="1.8" x2="-5.8" y2="1.0"/>
    <line x1="-5.8" y1="1.0" x2="-5.8" y2="-2.4"/>
    <line x1="-3.8" y1="-3.5" x2="-0.8" y2="-2.7"/>
    <line x1="-0.8" y1="-2.7" x2="-0.8" y2="0.6"/>
    <line x1="-0.8" y1="0.6" x2="-3.8" y2="-0.2"/>
    <line x1="-3.8" y1="-0.2" x2="-3.8" y2="-3.5"/>
    <line x1="-5.8" y1="-2.4" x2="-3.8" y2="-3.5"/>
    <line x1="-2.8" y1="-1.6" x2="-0.8" y2="-2.7"/>
    <line x1="-2.8" y1="1.8" x2="-0.8" y2="0.6"/>
    <line x1="-5.8" y1="1.0" x2="-3.8" y2="-0.2"/>
    <line x1="-2.5" y1="2.2" x2="0.5" y2="3.0"/>
    <line x1="0.5" y1="3.0" x2="0.5" y2="6.3"/>
    <line x1="0.5" y1="6.3" x2="-2.5" y2="5.5"/>
    <line x1="-2.5" y1="5.5" x2="-2.5" y2="2.2"/>
    <line x1="-0.5" y1="1.1" x2="2.5" y2="1.8"/>
    <line x1="2.5" y1="1.8" x2="2.5" y2="5.2"/>
    <line x1="2.5" y1="5.2" x2="-0.5" y2="4.4"/>
    <line x1="-0.5" y1="4.4" x2="-0.5" y2="1.1"/>
    <line x1="-2.5" y1="2.2" x2="-0.5" y2="1.1"/>
    <line x1="0.5" y1="3.0" x2="2.5" y2="1.8"/>
    <line x1="0.5" y1="6.3" x2="2.5" y2="5.2"/>
    <line x1="-2.5" y1="5.5" x2="-0.5" y2="4.4"/>
    <line x1="-2.5" y1="-5.2" x2="0.5" y2="-4.4"/>
    <line x1="0.5" y1="-4.4" x2="0.5" y2="-1.1"/>
    <line x1="0.5" y1="-1.1" x2="-2.5" y2="-1.8"/>
    <line x1="-2.5" y1="-1.8" x2="-2.5" y2="-5.2"/>
    <line x1="-0.5" y1="-6.3" x2="2.5" y2="-5.5"/>
    <line x1="2.5" y1="-5.5" x2="2.5" y2="-2.2"/>
    <line x1="2.5" y1="-2.2" x2="-0.5" y2="-3.0"/>
    <line x1="-0.5" y1="-3.0" x2="-0.5" y2="-6.3"/>
    <line x1="-2.5" y1="-5.2" x2="-0.5" y2="-6.3"/>
    <line x1="0.5" y1="-4.4" x2="2.5" y2="-5.5"/>
    <line x1="0.5" y1="-1.1" x2="2.5" y2="-2.2"/>
    <line x1="-2.5" y1="-1.8" x2="-0.5" y2="-3.0"/>
    <line x1="-0.2" y1="-2.8" x2="2.7" y2="-2.0"/>
    <line x1="2.7" y1="-2.0" x2="2.7" y2="1.3"/>
    <line x1="2.7" y1="1.3" x2="-0.2" y2="0.6"/>
    <line x1="-0.2" y1="0.6" x2="-0.2" y2="-2.8"/>
    <line x1="1.8" y1="-3.9" x2="4.8" y2="-3.1"/>
    <line x1="4.8" y1="-3.1" x2="4.8" y2="0.2"/>
    <line x1="4.8" y1="0.2" x2="1.8" y2="-0.6"/>
    <line x1="1.8" y1="-0.6" x2="1.8" y2="-3.9"/>
    <line x1="-0.2" y1="-2.8" x2="1.8" y2="-3.9"/>
    <line x1="2.7" y1="-2.0" x2="4.8" y2="-3.1"/>
    <line x1="2.7" y1="1.3" x2="4.8" y2="0.2"/>
    <line x1="-0.2" y1="0.6" x2="1.8" y2="-0.6"/>
    <line x1="-4.8" y1="-0.2" x2="-1.8" y2="0.6"/>
    <line x1="-1.8" y1="0.6" x2="-1.8" y2="3.9"/>
    <line x1="-1.8" y1="3.9" x2="-4.8" y2="3.1"/>
    <line x1="-4.8" y1="3.1" x2="-4.8" y2="-0.2"/>
    <line x1="-2.7" y1="-1.3" x2="0.2" y2="-0.6"/>
    <line x1="0.2" y1="-0.6" x2="0.2" y2="2.8"/>
    <line x1="0.2" y1="2.8" x2="-2.7" y2="2.0"/>
    <line x1="-2.7" y1="2.0" x2="-2.7" y2="-1.3"/>
    <line x1="-4.8" y1="-0.2" x2="-2.7" y2="-1.3"/>
    <line x1="-1.8" y1="0.6" x2="0.2" y2="-0.6"/>
    <line x1="-1.8" y1="3.9" x2="0.2" y2="2.8"/>
    <line x1="-4.8" y1="3.1" x2="-2.7" y2="2.0"/>
  </g>
</svg>
